Coordinates
version=1
nRows=18
nColumns=22
inDegrees=yes

Units are S.I. units (second, meters, Newtons, ...)
If the header above contains a line with 'inDegrees', this indicates whether rotational values are in degrees (yes) or radians (no).

endheader
time	pelvis_tilt	pelvis_list	pelvis_rotation	pelvis_tx	pelvis_ty	pelvis_tz	hip_flexion_r	hip_adduction_r	hip_rotation_r	knee_angle_r	ankle_angle_r	subtalar_angle_r	hip_flexion_l	hip_adduction_l	hip_rotation_l	knee_angle_l	ankle_angle_l	subtalar_angle_l	lumbar_extension	lumbar_bending	lumbar_rotation
      2.63000000	    -10.32109450	     -2.85109450	    -27.94182629	     -0.30001727	      0.95435479	      0.38030239	     33.51624398	      8.30348227	      2.66926640	    -31.33147837	     10.70555661	     -0.82823102	     13.75044448	     -8.18014594	     -0.57526888	    -61.41728067	      7.01068308	      1.80710166	     -0.39455716	      8.69145297	      2.18243859
      2.64000000	    -10.49271973	     -3.16726721	    -27.24042263	     -0.29365112	      0.95544009	      0.38441381	     32.96508255	      8.48295994	      2.24832553	    -31.17699457	     11.10548312	     -1.25198808	     15.31396669	     -8.90969710	     -0.80438678	    -63.42834742	      6.82493343	      1.75050259	     -0.43257221	      8.97929881	      2.23136162
      2.65000000	    -10.59442574	     -3.50381579	    -26.54519634	     -0.28733063	      0.95661233	      0.38832698	     32.33981162	      8.65149081	      1.81978516	    -30.99267737	     11.48735118	     -1.54405989	     16.79985232	     -9.58138191	     -1.00271384	    -65.21163599	      6.95279456	      1.60146760	     -0.56807961	      9.25902385	      2.34735738
      2.66000000	    -10.68411415	     -3.76415872	    -25.86373263	     -0.28110550	      0.95770577	      0.39202216	     31.76279171	      8.75808660	      1.41761498	    -30.82242055	     11.86595643	     -1.97422289	     18.30639524	    -10.11340395	     -1.18150627	    -66.75859406	      7.28321699	      1.28815716	     -0.68657118	      9.46562805	      2.49469633
      2.67000000	    -10.71546856	     -4.00718366	    -25.21561872	     -0.27491057	      0.95887770	      0.39555606	     31.12824659	      8.83882966	      1.03812983	    -30.61359548	     12.22451947	     -2.34422982	     19.72581252	    -10.53798962	     -1.34903977	    -68.03503014	      7.79127074	      0.86192530	     -0.86806682	      9.63459325	      2.73912743
      2.68000000	    -10.70699879	     -4.21595221	    -24.61280998	     -0.26874731	      0.96008515	      0.39892809	     30.46961836	      8.88796563	      0.67997444	    -30.38699642	     12.56015475	     -2.65371877	     21.07436530	    -10.85378399	     -1.53401436	    -69.03923935	      8.40151914	      0.40733206	     -1.08633714	      9.76738603	      3.06224453
      2.69000000	    -10.67058131	     -4.36359125	    -24.06553931	     -0.26260725	      0.96129898	      0.40218815	     29.80234132	      8.89475618	      0.37289298	    -30.13942468	     12.89292129	     -2.99201818	     22.35586783	    -11.04282185	     -1.75044577	    -69.76116324	      9.05992162	     -0.10925174	     -1.30961160	      9.83523809	      3.46825314
      2.70000000	    -10.61539752	     -4.48601545	    -23.56756645	     -0.25645956	      0.96253818	      0.40534995	     29.10218676	      8.89146348	      0.11704557	    -29.84199153	     13.20008445	     -3.20648916	     23.56152363	    -11.15043599	     -1.98666921	    -70.21149295	      9.75844375	     -0.44357192	     -1.54096576	      9.88256474	      3.93358198
      2.71000000	    -10.53903019	     -4.57670490	    -23.13158865	     -0.25035527	      0.96375658	      0.40844272	     28.40684954	      8.86620016	     -0.14388812	    -29.56227360	     13.49274979	     -3.51979410	     24.69103995	    -11.19906756	     -2.28425568	    -70.40537601	     10.40469503	     -0.87884727	     -1.79160966	      9.89328558	      4.49806474
      2.72000000	    -10.46388771	     -4.61090015	    -22.74367794	     -0.24425332	      0.96492462	      0.41146558	     27.72949147	      8.80464183	     -0.35176353	    -29.27721955	     13.84606500	     -3.63209783	     25.77057224	    -11.16773929	     -2.62690705	    -70.34859113	     11.05447029	     -0.98524450	     -2.00828227	      9.85291076	      5.09147975
      2.73000000	    -10.36422618	     -4.71526662	    -22.40598072	     -0.23813646	      0.96617530	      0.41452010	     26.94632515	      8.82992440	     -0.50572740	    -28.88975075	     14.07464436	     -3.93203846	     26.72706308	    -11.21400205	     -3.01416321	    -70.05916216	     11.69374950	     -1.27455040	     -2.27996378	      9.87458134	      5.73219238
      2.74000000	    -10.31838425	     -4.75316397	    -22.06361770	     -0.23207337	      0.96721079	      0.41741489	     26.28041820	      8.79190224	     -0.71280946	    -28.56454769	     14.40378993	     -4.02466751	     27.72965043	    -11.18756463	     -3.39821652	    -69.58218205	     12.30663732	     -1.30534214	     -2.45555293	      9.85161235	      6.35097985
      2.75000000	    -10.20933848	     -4.86932924	    -21.79770442	     -0.22598173	      0.96839485	      0.42043940	     25.46333109	      8.85349229	     -0.81895352	    -28.13760216	     14.62819921	     -4.25144304	     28.54856931	    -11.28283181	     -3.89098052	    -68.88980861	     12.91495057	     -1.35789724	     -2.73296565	      9.87215771	      7.03153359
      2.76000000	    -10.14666522	     -4.96760141	    -21.51339949	     -0.21991349	      0.96940463	      0.42333294	     24.71393335	      8.89943017	     -0.96821375	    -27.72698560	     14.88460806	     -4.41194734	     29.39242139	    -11.37051556	     -4.37505027	    -68.04407332	     13.50304683	     -1.34802949	     -2.93964115	      9.89359541	      7.66207013
      2.77000000	    -10.09411384	     -5.07917826	    -21.23049472	     -0.21384938	      0.97033363	      0.42617786	     23.96460172	      8.96578568	     -1.11430516	    -27.30085898	     15.12762968	     -4.57001094	     30.19970040	    -11.49674799	     -4.88641502	    -67.05161271	     14.05873916	     -1.33560212	     -3.13194030	      9.92719451	      8.27359228
      2.78000000	    -10.05570688	     -5.19824619	    -20.93950798	     -0.20778567	      0.97116822	      0.42894989	     23.22573331	      9.04434523	     -1.26642878	    -26.86415269	     15.36468085	     -4.74169640	     30.97940563	    -11.64914810	     -5.41425103	    -65.92683583	     14.58169697	     -1.35131195	     -3.30484506	      9.96931285	      8.84824508
      2.79000000	    -10.02995676	     -5.32394105	    -20.62947448	     -0.20170685	      0.97189723	      0.43163526	     22.49886468	      9.13154254	     -1.42691297	    -26.42408904	     15.58766548	     -4.92978455	     31.73599601	    -11.82381646	     -5.95729673	    -64.69100660	     15.05455129	     -1.40975680	     -3.45704786	     10.02040627	      9.38407666
      2.80000000	    -10.01395208	     -5.45490641	    -20.29439019	     -0.19560533	      0.97252361	      0.43421342	     21.78399620	      9.22131514	     -1.60704199	    -25.98313285	     15.80981050	     -5.13521857	     32.46818852	    -12.00782898	     -6.50358988	    -63.35607408	     15.48495667	     -1.50768806	     -3.59263512	     10.07890295	      9.87166426
